<svg width="160" height="32" viewBox="0 0 160 32" fill="none" xmlns="http://www.w3.org/2000/svg">
<path d="M5 10L6.93932 10.796L7 22L5 21.1788L5 10Z" fill="#6679FF"/>
<path d="M10.5 6.31042L12.4393 7.57077L12.5 25.3104L10.5 24.0102L10.5 6.31042Z" fill="#7D8BFE"/>
<path d="M15.6097 4.01086L17.5491 5.60288L17.6097 28.0109L15.6097 26.3685L15.6097 4.01086Z" fill="#ACB6FF"/>
<path d="M20.399 6.31042L22.3383 7.59485L22.399 25.6735L20.399 24.3485V6.31042Z" fill="#7D8BFE"/>
<path d="M26 10L27.9393 10.796L28 22L26 21.1788V10Z" fill="#6679FF"/>
<path d="M50.9969 23.28C49.8903 23.28 48.8636 23.1067 47.9169 22.76C46.9836 22.4 46.1703 21.8933 45.4769 21.24C44.7969 20.5867 44.2636 19.82 43.8769 18.94C43.4903 18.0467 43.2969 17.0667 43.2969 16C43.2969 14.9333 43.4903 13.96 43.8769 13.08C44.2636 12.1867 44.7969 11.4133 45.4769 10.76C46.1703 10.1067 46.9836 9.60667 47.9169 9.26C48.8636 8.9 49.8903 8.72 50.9969 8.72C52.2903 8.72 53.4436 8.94667 54.4569 9.4C55.4836 9.85333 56.3369 10.5067 57.0169 11.36L54.4969 13.64C54.0436 13.1067 53.5436 12.7 52.9969 12.42C52.4636 12.14 51.8636 12 51.1969 12C50.6236 12 50.0969 12.0933 49.6169 12.28C49.1369 12.4667 48.7236 12.74 48.3769 13.1C48.0436 13.4467 47.7769 13.8667 47.5769 14.36C47.3903 14.8533 47.2969 15.4 47.2969 16C47.2969 16.6 47.3903 17.1467 47.5769 17.64C47.7769 18.1333 48.0436 18.56 48.3769 18.92C48.7236 19.2667 49.1369 19.5333 49.6169 19.72C50.0969 19.9067 50.6236 20 51.1969 20C51.8636 20 52.4636 19.86 52.9969 19.58C53.5436 19.3 54.0436 18.8933 54.4969 18.36L57.0169 20.64C56.3369 21.48 55.4836 22.1333 54.4569 22.6C53.4436 23.0533 52.2903 23.28 50.9969 23.28ZM57.4682 23L63.6482 9H67.5482L73.7482 23H69.6282L64.7882 10.94H66.3482L61.5082 23H57.4682ZM60.8482 20.28L61.8682 17.36H68.7082L69.7282 20.28H60.8482ZM80.3909 23.28C79.2442 23.28 78.1375 23.14 77.0709 22.86C76.0175 22.5667 75.1575 22.1933 74.4909 21.74L75.7909 18.82C76.4175 19.22 77.1375 19.5533 77.9509 19.82C78.7775 20.0733 79.5975 20.2 80.4109 20.2C80.9575 20.2 81.3975 20.1533 81.7309 20.06C82.0642 19.9533 82.3042 19.82 82.4509 19.66C82.6109 19.4867 82.6909 19.2867 82.6909 19.06C82.6909 18.74 82.5442 18.4867 82.2509 18.3C81.9575 18.1133 81.5775 17.96 81.1109 17.84C80.6442 17.72 80.1242 17.6 79.5509 17.48C78.9909 17.36 78.4242 17.2067 77.8509 17.02C77.2909 16.8333 76.7775 16.5933 76.3109 16.3C75.8442 15.9933 75.4642 15.6 75.1709 15.12C74.8775 14.6267 74.7309 14.0067 74.7309 13.26C74.7309 12.42 74.9575 11.66 75.4109 10.98C75.8775 10.3 76.5709 9.75333 77.4909 9.34C78.4109 8.92667 79.5575 8.72 80.9309 8.72C81.8509 8.72 82.7509 8.82667 83.6309 9.04C84.5242 9.24 85.3175 9.54 86.0109 9.94L84.7909 12.88C84.1242 12.52 83.4642 12.2533 82.8109 12.08C82.1575 11.8933 81.5242 11.8 80.9109 11.8C80.3642 11.8 79.9242 11.86 79.5909 11.98C79.2575 12.0867 79.0175 12.2333 78.8709 12.42C78.7242 12.6067 78.6509 12.82 78.6509 13.06C78.6509 13.3667 78.7909 13.6133 79.0709 13.8C79.3642 13.9733 79.7442 14.12 80.2109 14.24C80.6909 14.3467 81.2109 14.46 81.7709 14.58C82.3442 14.7 82.9109 14.8533 83.4709 15.04C84.0442 15.2133 84.5642 15.4533 85.0309 15.76C85.4975 16.0533 85.8709 16.4467 86.1509 16.94C86.4442 17.42 86.5909 18.0267 86.5909 18.76C86.5909 19.5733 86.3575 20.3267 85.8909 21.02C85.4375 21.7 84.7509 22.2467 83.8309 22.66C82.9242 23.0733 81.7775 23.28 80.3909 23.28ZM96.0001 23.28C94.8934 23.28 93.8667 23.1067 92.9201 22.76C91.9867 22.4 91.1734 21.8933 90.4801 21.24C89.8001 20.5867 89.2667 19.82 88.8801 18.94C88.4934 18.0467 88.3001 17.0667 88.3001 16C88.3001 14.9333 88.4934 13.96 88.8801 13.08C89.2667 12.1867 89.8001 11.4133 90.4801 10.76C91.1734 10.1067 91.9867 9.60667 92.9201 9.26C93.8667 8.9 94.8934 8.72 96.0001 8.72C97.2934 8.72 98.4467 8.94667 99.4601 9.4C100.487 9.85333 101.34 10.5067 102.02 11.36L99.5001 13.64C99.0467 13.1067 98.5467 12.7 98.0001 12.42C97.4667 12.14 96.8667 12 96.2001 12C95.6267 12 95.1001 12.0933 94.6201 12.28C94.1401 12.4667 93.7267 12.74 93.3801 13.1C93.0467 13.4467 92.7801 13.8667 92.5801 14.36C92.3934 14.8533 92.3001 15.4 92.3001 16C92.3001 16.6 92.3934 17.1467 92.5801 17.64C92.7801 18.1333 93.0467 18.56 93.3801 18.92C93.7267 19.2667 94.1401 19.5333 94.6201 19.72C95.1001 19.9067 95.6267 20 96.2001 20C96.8667 20 97.4667 19.86 98.0001 19.58C98.5467 19.3 99.0467 18.8933 99.5001 18.36L102.02 20.64C101.34 21.48 100.487 22.1333 99.4601 22.6C98.4467 23.0533 97.2934 23.28 96.0001 23.28ZM102.471 23L108.651 9H112.551L118.751 23H114.631L109.791 10.94H111.351L106.511 23H102.471ZM105.851 20.28L106.871 17.36H113.711L114.731 20.28H105.851ZM120.474 23V9H127.094C128.641 9 130.001 9.28667 131.174 9.86C132.347 10.4333 133.261 11.24 133.914 12.28C134.581 13.32 134.914 14.56 134.914 16C134.914 17.4267 134.581 18.6667 133.914 19.72C133.261 20.76 132.347 21.5667 131.174 22.14C130.001 22.7133 128.641 23 127.094 23H120.474ZM124.434 19.84H126.934C127.734 19.84 128.427 19.6933 129.014 19.4C129.614 19.0933 130.081 18.6533 130.414 18.08C130.747 17.4933 130.914 16.8 130.914 16C130.914 15.1867 130.747 14.4933 130.414 13.92C130.081 13.3467 129.614 12.9133 129.014 12.62C128.427 12.3133 127.734 12.16 126.934 12.16H124.434V19.84ZM141.237 14.42H147.737V17.38H141.237V14.42ZM141.517 19.94H148.837V23H137.597V9H148.577V12.06H141.517V19.94Z" fill="white"/>
</svg>
